<svg viewBox="0 0 760 404" xmlns="http://www.w3.org/2000/svg" role="img" aria-labelledby="t-tf d-tf">
  <title id="t-tf">The original transformer</title>
  <desc id="d-tf">An encoder reads the input text into context vectors; a decoder uses them, plus the partial output, to generate the translation one word at a time.</desc>
  <defs>
    <marker id="ar-tf" markerWidth="9" markerHeight="9" refX="7.5" refY="4.5" orient="auto"><path d="M0 0 L9 4.5 L0 9 z" class="d-arrow"/></marker>
    <marker id="ar-tfa" markerWidth="9" markerHeight="9" refX="7.5" refY="4.5" orient="auto"><path d="M0 0 L9 4.5 L0 9 z" class="d-arrow-accent"/></marker>
  </defs>

  <rect class="d-node" x="74" y="150" width="184" height="120" rx="14"/>
  <text class="d-c d-bold" x="166" y="204" font-size="15">Encoder</text>
  <text class="d-c d-tmut d-xs" x="166" y="226">reads the input text</text>

  <rect class="d-node" x="502" y="150" width="184" height="120" rx="14"/>
  <text class="d-c d-bold" x="594" y="204" font-size="15">Decoder</text>
  <text class="d-c d-tmut d-xs" x="594" y="226">writes the output</text>

  <rect class="d-chip" x="76" y="340" width="180" height="46" rx="11"/>
  <text class="d-c d-tmut d-xs" x="166" y="360">INPUT</text>
  <text class="d-c d-s" x="166" y="377">"This is an example"</text>
  <line class="d-line" x1="166" y1="338" x2="166" y2="274" marker-end="url(#ar-tf)"/>

  <rect class="d-chip" x="504" y="40" width="180" height="46" rx="11"/>
  <text class="d-c d-tmut d-xs" x="594" y="60">OUTPUT</text>
  <text class="d-c d-s" x="594" y="77">"Das ist ein Beispiel"</text>
  <line class="d-line" x1="594" y1="150" x2="594" y2="90" marker-end="url(#ar-tf)"/>

  <rect class="d-chip" x="504" y="340" width="180" height="46" rx="11"/>
  <text class="d-c d-tmut d-xs" x="594" y="360">PARTIAL OUTPUT</text>
  <text class="d-c d-s" x="594" y="377">"Das ist ein ___"</text>
  <line class="d-line" x1="594" y1="338" x2="594" y2="274" marker-end="url(#ar-tf)"/>

  <line class="d-line-accent" x1="258" y1="200" x2="502" y2="200" marker-end="url(#ar-tfa)"/>
  <rect class="d-chip" x="310" y="187" width="140" height="28" rx="14"/>
  <text class="d-c d-tac d-xs d-bold" x="380" y="205">context vectors</text>

  <rect class="d-soft" x="228" y="292" width="304" height="32" rx="16"/>
  <text class="d-c d-tac d-xs d-bold" x="380" y="312">Self-attention powers both · Chapter 3</text>
</svg>
