<svg viewBox="0 0 760 430" xmlns="http://www.w3.org/2000/svg" role="img" aria-labelledby="t-tf d-tf">
  <title id="t-tf">The original transformer</title>
  <desc id="d-tf">An encoder reads the input text into context vectors; a decoder uses them, plus the partial output, to generate the translation one word at a time.</desc>
  <defs>
    <marker id="ar-tf" markerWidth="9" markerHeight="9" refX="7.5" refY="4.5" orient="auto"><path d="M0 0 L9 4.5 L0 9 z" class="d-arrow"/></marker>
    <marker id="ar-tfa" markerWidth="9" markerHeight="9" refX="7.5" refY="4.5" orient="auto"><path d="M0 0 L9 4.5 L0 9 z" class="d-arrow-accent"/></marker>
  </defs>

  <rect class="d-node" x="74" y="156" width="184" height="128" rx="14"/>
  <text class="d-c d-bold" x="166" y="212" font-size="15">Encoder</text>
  <text class="d-c d-tmut d-xs" x="166" y="232">reads &amp; understands input</text>

  <rect class="d-node" x="502" y="156" width="184" height="128" rx="14"/>
  <text class="d-c d-bold" x="594" y="212" font-size="15">Decoder</text>
  <text class="d-c d-tmut d-xs" x="594" y="232">generates text, word by word</text>

  <rect class="d-chip" x="92" y="334" width="148" height="44" rx="11"/>
  <text class="d-c d-tmut d-xs" x="166" y="353">INPUT</text>
  <text class="d-c d-s" x="166" y="370">"This is an example"</text>
  <line class="d-line" x1="166" y1="334" x2="166" y2="288" marker-end="url(#ar-tf)"/>

  <rect class="d-chip" x="520" y="52" width="148" height="44" rx="11"/>
  <text class="d-c d-tmut d-xs" x="594" y="71">OUTPUT</text>
  <text class="d-c d-s" x="594" y="88">"Das ist ein Beispiel"</text>
  <line class="d-line" x1="594" y1="156" x2="594" y2="100" marker-end="url(#ar-tf)"/>

  <rect class="d-chip" x="512" y="334" width="164" height="44" rx="11"/>
  <text class="d-c d-tmut d-xs" x="594" y="353">PARTIAL OUTPUT</text>
  <text class="d-c d-s" x="594" y="370">"Das ist ein ___"</text>
  <line class="d-line" x1="594" y1="334" x2="594" y2="288" marker-end="url(#ar-tf)"/>

  <line class="d-line-accent" x1="258" y1="206" x2="502" y2="206" marker-end="url(#ar-tfa)"/>
  <rect class="d-chip" x="312" y="192" width="136" height="28" rx="14"/>
  <text class="d-c d-tac d-xs d-bold" x="380" y="210">context vectors</text>

  <rect class="d-soft" x="246" y="300" width="268" height="32" rx="16"/>
  <text class="d-c d-tac d-xs d-bold" x="380" y="320">Self-attention powers both · Chapter 3</text>
</svg>
