<svg viewBox="0 0 760 290" xmlns="http://www.w3.org/2000/svg" role="img" aria-labelledby="t-ip d-ip">
  <title id="t-ip">The full input-embedding pipeline</title>
  <desc id="d-ip">Text becomes tokens, then token IDs, then token embeddings; positional embeddings of the same size are added to produce the final input embeddings.</desc>
  <defs>
    <marker id="ar-ip" markerWidth="9" markerHeight="9" refX="7.5" refY="4.5" orient="auto"><path d="M0 0 L9 4.5 L0 9 z" class="d-arrow"/></marker>
  </defs>

  <!-- top: text -> tokens -> ids -->
  <g font-size="12.5">
    <rect class="d-node" x="40" y="30" width="160" height="40" rx="9"/><text class="d-c" x="120" y="55">"This is an example"</text>
    <line class="d-line" x1="200" y1="50" x2="236" y2="50" marker-end="url(#ar-ip)"/>
    <rect class="d-node" x="238" y="30" width="180" height="40" rx="9"/><text class="d-c" x="328" y="55">This · is · an · example</text>
    <line class="d-line" x1="418" y1="50" x2="454" y2="50" marker-end="url(#ar-ip)"/>
    <rect class="d-node" x="456" y="30" width="200" height="40" rx="9"/><text class="d-c" x="556" y="55">40134 2052 133 389</text>
  </g>

  <line class="d-line" x1="556" y1="70" x2="556" y2="100" marker-end="url(#ar-ip)"/>
  <text class="d-tac d-xs d-bold d-e" x="548" y="90">embed</text>

  <!-- bottom: token emb + pos emb = input emb -->
  <rect class="d-node" x="60" y="150" width="190" height="80" rx="12"/>
  <text class="d-c d-bold d-s" x="155" y="184">Token embeddings</text>
  <text class="d-c d-tmut d-xs" x="155" y="206">[8 × 4 × 256]</text>

  <text class="d-c d-tac" x="278" y="196" font-size="26">+</text>

  <rect class="d-soft" x="306" y="150" width="190" height="80" rx="12"/>
  <text class="d-c d-bold d-s" x="401" y="184">Positional embeddings</text>
  <text class="d-c d-tmut d-xs" x="401" y="206">[4 × 256]</text>

  <line class="d-line-accent" x1="500" y1="190" x2="540" y2="190" marker-end="url(#ar-ip)"/>

  <rect class="d-fill-accent" x="544" y="150" width="180" height="80" rx="12"/>
  <text class="d-c d-tinv d-bold d-s" x="634" y="184">Input embeddings</text>
  <text class="d-c d-tinv d-xs" x="634" y="206" opacity=".9">[8 × 4 × 256]</text>

  <text class="d-c d-tmut d-xs" x="380" y="262">positional vectors are broadcast across the batch and added element-wise</text>
</svg>
